<svg xmlns="http://www.w3.org/2000/svg" viewBox="0 0 900 620">
<rect width="100%" height="100%" fill="white"/>
<text x="55" y="28" font-family="sans-serif" font-size="17">Checkpoint localization comparison — 20260723T075138Z_furniture_changed_route_01_08969e7150d9</text>
<rect x="55" y="55" width="790" height="510" fill="none" stroke="#94a3b8"/>
<line x1="844.96" y1="55.03" x2="845.00" y2="55.00" stroke="#94a3b8"/><circle cx="844.96" cy="55.03" r="5" fill="#16a34a"/><circle cx="845.00" cy="55.00" r="4" fill="#2563eb"/><line x1="844.98" y1="155.35" x2="837.67" y2="155.34" stroke="#94a3b8"/><circle cx="844.98" cy="155.35" r="5" fill="#16a34a"/><circle cx="837.67" cy="155.34" r="4" fill="#2563eb"/><line x1="669.44" y1="155.34" x2="662.13" y2="155.33" stroke="#94a3b8"/><circle cx="669.44" cy="155.34" r="5" fill="#16a34a"/><circle cx="662.13" cy="155.33" r="4" fill="#2563eb"/><line x1="486.58" y1="55.00" x2="486.57" y2="55.01" stroke="#94a3b8"/><circle cx="486.58" cy="55.00" r="5" fill="#16a34a"/><circle cx="486.57" cy="55.01" r="4" fill="#2563eb"/><line x1="398.81" y1="155.33" x2="398.79" y2="155.34" stroke="#94a3b8"/><circle cx="398.81" cy="155.33" r="5" fill="#16a34a"/><circle cx="398.79" cy="155.34" r="4" fill="#2563eb"/><line x1="406.12" y1="565.00" x2="406.11" y2="556.65" stroke="#94a3b8"/><circle cx="406.12" cy="565.00" r="5" fill="#16a34a"/><circle cx="406.11" cy="556.65" r="4" fill="#2563eb"/><line x1="413.44" y1="456.31" x2="413.42" y2="456.32" stroke="#94a3b8"/><circle cx="413.44" cy="456.31" r="5" fill="#16a34a"/><circle cx="413.42" cy="456.32" r="4" fill="#2563eb"/><line x1="55.04" y1="389.47" x2="55.00" y2="389.44" stroke="#94a3b8"/><circle cx="55.04" cy="389.47" r="5" fill="#16a34a"/><circle cx="55.00" cy="389.44" r="4" fill="#2563eb"/>
<text x="55" y="605" font-family="sans-serif" font-size="14">Independent checkpoints: ground truth (green), estimate (blue), units: metre</text>
</svg>
