<svg xmlns="http://www.w3.org/2000/svg" viewBox="0 0 900 620">
<rect width="100%" height="100%" fill="white"/>
<text x="55" y="28" font-family="sans-serif" font-size="17">Checkpoint localization comparison — 20260723T071440Z_furniture_changed_route_01_08969e7150d9</text>
<rect x="55" y="55" width="790" height="510" fill="none" stroke="#94a3b8"/>
<line x1="55.02" y1="392.31" x2="55.00" y2="392.26" stroke="#94a3b8"/><circle cx="55.02" cy="392.31" r="5" fill="#16a34a"/><circle cx="55.00" cy="392.26" r="4" fill="#2563eb"/><line x1="413.44" y1="458.06" x2="406.12" y2="458.07" stroke="#94a3b8"/><circle cx="413.44" cy="458.06" r="5" fill="#16a34a"/><circle cx="406.12" cy="458.07" r="4" fill="#2563eb"/><line x1="406.12" y1="565.00" x2="398.81" y2="556.78" stroke="#94a3b8"/><circle cx="406.12" cy="565.00" r="5" fill="#16a34a"/><circle cx="398.81" cy="556.78" r="4" fill="#2563eb"/><line x1="398.80" y1="161.94" x2="398.79" y2="161.94" stroke="#94a3b8"/><circle cx="398.80" cy="161.94" r="5" fill="#16a34a"/><circle cx="398.79" cy="161.94" r="4" fill="#2563eb"/><line x1="486.59" y1="63.23" x2="486.57" y2="63.24" stroke="#94a3b8"/><circle cx="486.59" cy="63.23" r="5" fill="#16a34a"/><circle cx="486.57" cy="63.24" r="4" fill="#2563eb"/><line x1="669.45" y1="161.94" x2="662.12" y2="161.96" stroke="#94a3b8"/><circle cx="669.45" cy="161.94" r="5" fill="#16a34a"/><circle cx="662.12" cy="161.96" r="4" fill="#2563eb"/><line x1="845.00" y1="161.96" x2="837.71" y2="153.71" stroke="#94a3b8"/><circle cx="845.00" cy="161.96" r="5" fill="#16a34a"/><circle cx="837.71" cy="153.71" r="4" fill="#2563eb"/><line x1="844.99" y1="63.25" x2="837.71" y2="55.00" stroke="#94a3b8"/><circle cx="844.99" cy="63.25" r="5" fill="#16a34a"/><circle cx="837.71" cy="55.00" r="4" fill="#2563eb"/>
<text x="55" y="605" font-family="sans-serif" font-size="14">Independent checkpoints: ground truth (green), estimate (blue), units: metre</text>
</svg>
