<svg xmlns="http://www.w3.org/2000/svg" viewBox="0 0 900 620">
<rect width="100%" height="100%" fill="white"/>
<text x="55" y="28" font-family="sans-serif" font-size="17">Checkpoint localization comparison — 20260725T014601Z_dynamic_occluded_dynamic_occluded_01_198484089432</text>
<rect x="55" y="55" width="790" height="510" fill="none" stroke="#94a3b8"/>
<line x1="55.00" y1="463.00" x2="55.00" y2="463.02" stroke="#94a3b8"/><circle cx="55.00" cy="463.00" r="5" fill="#16a34a"/><circle cx="55.00" cy="463.02" r="4" fill="#2563eb"/><line x1="268.78" y1="463.00" x2="278.06" y2="463.01" stroke="#94a3b8"/><circle cx="268.78" cy="463.00" r="5" fill="#16a34a"/><circle cx="278.06" cy="463.01" r="4" fill="#2563eb"/><line x1="213.01" y1="564.99" x2="203.70" y2="565.00" stroke="#94a3b8"/><circle cx="213.01" cy="564.99" r="5" fill="#16a34a"/><circle cx="203.70" cy="565.00" r="4" fill="#2563eb"/><line x1="287.36" y1="157.00" x2="287.35" y2="157.01" stroke="#94a3b8"/><circle cx="287.36" cy="157.00" r="5" fill="#16a34a"/><circle cx="287.35" cy="157.01" r="4" fill="#2563eb"/><line x1="398.89" y1="55.00" x2="398.88" y2="55.01" stroke="#94a3b8"/><circle cx="398.89" cy="55.00" r="5" fill="#16a34a"/><circle cx="398.88" cy="55.01" r="4" fill="#2563eb"/><line x1="612.65" y1="165.50" x2="621.94" y2="165.51" stroke="#94a3b8"/><circle cx="612.65" cy="165.50" r="5" fill="#16a34a"/><circle cx="621.94" cy="165.51" r="4" fill="#2563eb"/><line x1="845.00" y1="174.00" x2="844.98" y2="174.01" stroke="#94a3b8"/><circle cx="845.00" cy="174.00" r="5" fill="#16a34a"/><circle cx="844.98" cy="174.01" r="4" fill="#2563eb"/><line x1="844.98" y1="72.00" x2="844.96" y2="63.51" stroke="#94a3b8"/><circle cx="844.98" cy="72.00" r="5" fill="#16a34a"/><circle cx="844.96" cy="63.51" r="4" fill="#2563eb"/>
<text x="55" y="605" font-family="sans-serif" font-size="14">Independent checkpoints: ground truth (green), estimate (blue), units: metre</text>
</svg>
