<svg xmlns="http://www.w3.org/2000/svg" viewBox="0 0 1000 190">
<rect width="100%" height="100%" fill="white"/>
<text x="45" y="28" font-family="sans-serif" font-size="17">Localization states — 20260725T013852Z_nominal_kidnapped_01_198484089432</text>
<rect x="45.00" y="58" width="2.50" height="58" fill="#0284c7"/><rect x="47.30" y="58" width="2.50" height="58" fill="#0284c7"/><rect x="49.61" y="58" width="2.50" height="58" fill="#0284c7"/><rect x="51.91" y="58" width="2.50" height="58" fill="#16a34a"/><rect x="54.22" y="58" width="2.50" height="58" fill="#16a34a"/><rect x="56.52" y="58" width="2.50" height="58" fill="#16a34a"/><rect x="58.82" y="58" width="2.50" height="58" fill="#16a34a"/><rect x="61.13" y="58" width="2.50" height="58" fill="#16a34a"/><rect x="63.43" y="58" width="2.50" height="58" fill="#16a34a"/><rect x="65.73" y="58" width="2.50" height="58" fill="#16a34a"/><rect x="68.04" y="58" width="2.50" height="58" fill="#16a34a"/><rect x="70.34" y="58" width="2.50" height="58" fill="#16a34a"/><rect x="72.65" y="58" width="2.50" height="58" fill="#16a34a"/><rect x="74.95" y="58" width="2.50" height="58" fill="#16a34a"/><rect x="77.25" y="58" width="2.50" height="58" fill="#16a34a"/><rect x="79.56" y="58" width="2.50" height="58" fill="#16a34a"/><rect x="81.86" y="58" width="2.50" height="58" fill="#16a34a"/><rect x="84.16" y="58" width="2.50" height="58" fill="#16a34a"/><rect x="86.47" y="58" width="2.50" height="58" fill="#16a34a"/><rect x="88.77" y="58" width="2.50" height="58" fill="#16a34a"/><rect x="91.08" y="58" width="2.50" height="58" fill="#16a34a"/><rect x="93.38" y="58" width="2.50" height="58" fill="#16a34a"/><rect x="95.68" y="58" width="2.50" height="58" fill="#16a34a"/><rect x="97.99" y="58" width="2.50" height="58" fill="#16a34a"/><rect x="100.29" y="58" width="2.50" height="58" fill="#16a34a"/><rect x="102.59" y="58" width="2.50" height="58" fill="#16a34a"/><rect x="104.90" y="58" width="2.50" height="58" fill="#16a34a"/><rect x="107.20" y="58" width="2.50" height="58" fill="#16a34a"/><rect x="109.51" y="58" width="2.50" height="58" fill="#16a34a"/><rect x="111.81" y="58" width="2.50" height="58" fill="#16a34a"/><rect x="114.11" y="58" width="2.50" height="58" fill="#16a34a"/><rect x="116.42" y="58" width="2.50" height="58" fill="#16a34a"/><rect x="118.72" y="58" width="2.50" height="58" fill="#16a34a"/><rect x="121.03" y="58" width="2.50" height="58" fill="#16a34a"/><rect x="123.33" y="58" width="2.50" height="58" fill="#16a34a"/><rect x="125.63" y="58" width="2.50" height="58" fill="#16a34a"/><rect x="127.94" y="58" width="2.50" height="58" fill="#16a34a"/><rect x="130.24" y="58" width="2.50" height="58" fill="#16a34a"/><rect x="132.54" y="58" width="2.50" height="58" fill="#16a34a"/><rect x="134.85" y="58" width="2.50" height="58" fill="#16a34a"/><rect x="137.15" y="58" width="2.50" height="58" fill="#16a34a"/><rect x="139.46" y="58" width="2.50" height="58" fill="#16a34a"/><rect x="141.76" y="58" width="2.50" height="58" fill="#16a34a"/><rect x="144.06" y="58" width="2.50" height="58" fill="#16a34a"/><rect x="146.37" y="58" width="2.50" height="58" fill="#16a34a"/><rect x="148.67" y="58" width="2.50" height="58" fill="#16a34a"/><rect x="150.97" y="58" width="2.50" height="58" fill="#16a34a"/><rect x="153.28" y="58" width="2.50" height="58" fill="#16a34a"/><rect x="155.58" y="58" width="2.50" height="58" fill="#16a34a"/><rect x="157.89" y="58" width="2.50" height="58" fill="#16a34a"/><rect x="160.19" y="58" width="2.50" height="58" fill="#16a34a"/><rect x="162.49" y="58" width="2.50" height="58" fill="#16a34a"/><rect x="164.80" y="58" width="2.50" height="58" fill="#16a34a"/><rect x="167.10" y="58" width="2.50" height="58" fill="#16a34a"/><rect x="169.41" y="58" width="2.50" height="58" fill="#16a34a"/><rect x="171.71" y="58" width="2.50" height="58" fill="#16a34a"/><rect x="174.01" y="58" width="2.50" height="58" fill="#16a34a"/><rect x="176.32" y="58" width="2.50" height="58" fill="#16a34a"/><rect x="178.62" y="58" width="2.50" height="58" fill="#16a34a"/><rect x="180.92" y="58" width="2.50" height="58" fill="#16a34a"/><rect x="183.23" y="58" width="2.50" height="58" fill="#16a34a"/><rect x="185.53" y="58" width="2.50" height="58" fill="#16a34a"/><rect x="187.84" y="58" width="2.50" height="58" fill="#16a34a"/><rect x="190.14" y="58" width="2.50" height="58" fill="#16a34a"/><rect x="192.44" y="58" width="2.50" height="58" fill="#16a34a"/><rect x="194.75" y="58" width="2.50" height="58" fill="#16a34a"/><rect x="197.05" y="58" width="2.50" height="58" fill="#16a34a"/><rect x="199.35" y="58" width="2.50" height="58" fill="#16a34a"/><rect x="201.66" y="58" width="2.50" height="58" fill="#16a34a"/><rect x="203.96" y="58" width="2.50" height="58" fill="#16a34a"/><rect x="206.27" y="58" width="2.50" height="58" fill="#16a34a"/><rect x="208.57" y="58" width="2.50" height="58" fill="#16a34a"/><rect x="210.87" y="58" width="2.50" height="58" fill="#16a34a"/><rect x="213.18" y="58" width="2.50" height="58" fill="#16a34a"/><rect x="215.48" y="58" width="2.50" height="58" fill="#16a34a"/><rect x="217.78" y="58" width="2.50" height="58" fill="#16a34a"/><rect x="220.09" y="58" width="2.50" height="58" fill="#16a34a"/><rect x="222.39" y="58" width="2.50" height="58" fill="#16a34a"/><rect x="224.70" y="58" width="2.50" height="58" fill="#16a34a"/><rect x="227.00" y="58" width="2.50" height="58" fill="#16a34a"/><rect x="229.30" y="58" width="2.50" height="58" fill="#16a34a"/><rect x="231.61" y="58" width="2.50" height="58" fill="#16a34a"/><rect x="233.91" y="58" width="2.50" height="58" fill="#16a34a"/><rect x="236.22" y="58" width="2.50" height="58" fill="#16a34a"/><rect x="238.52" y="58" width="2.50" height="58" fill="#16a34a"/><rect x="240.82" y="58" width="2.50" height="58" fill="#16a34a"/><rect x="243.13" y="58" width="2.50" height="58" fill="#16a34a"/><rect x="245.43" y="58" width="2.50" height="58" fill="#16a34a"/><rect x="247.73" y="58" width="2.50" height="58" fill="#16a34a"/><rect x="250.04" y="58" width="2.50" height="58" fill="#16a34a"/><rect x="252.34" y="58" width="2.50" height="58" fill="#16a34a"/><rect x="254.65" y="58" width="2.50" height="58" fill="#16a34a"/><rect x="256.95" y="58" width="2.50" height="58" fill="#16a34a"/><rect x="259.25" y="58" width="2.50" height="58" fill="#16a34a"/><rect x="261.56" y="58" width="2.50" height="58" fill="#16a34a"/><rect x="263.86" y="58" width="2.50" height="58" fill="#16a34a"/><rect x="266.16" y="58" width="2.50" height="58" fill="#16a34a"/><rect x="268.47" y="58" width="2.50" height="58" fill="#16a34a"/><rect x="270.77" y="58" width="2.50" height="58" fill="#16a34a"/><rect x="273.08" y="58" width="2.50" height="58" fill="#16a34a"/><rect x="275.38" y="58" width="2.50" height="58" fill="#16a34a"/><rect x="277.68" y="58" width="2.50" height="58" fill="#16a34a"/><rect x="279.99" y="58" width="2.50" height="58" fill="#16a34a"/><rect x="282.29" y="58" width="2.50" height="58" fill="#16a34a"/><rect x="284.59" y="58" width="2.50" height="58" fill="#16a34a"/><rect x="286.90" y="58" width="2.50" height="58" fill="#16a34a"/><rect x="289.20" y="58" width="2.50" height="58" fill="#16a34a"/><rect x="291.51" y="58" width="2.50" height="58" fill="#16a34a"/><rect x="293.81" y="58" width="2.50" height="58" fill="#16a34a"/><rect x="296.11" y="58" width="2.50" height="58" fill="#16a34a"/><rect x="298.42" y="58" width="2.50" height="58" fill="#16a34a"/><rect x="300.72" y="58" width="2.50" height="58" fill="#16a34a"/><rect x="303.03" y="58" width="2.50" height="58" fill="#16a34a"/><rect x="305.33" y="58" width="2.50" height="58" fill="#16a34a"/><rect x="307.63" y="58" width="2.50" height="58" fill="#16a34a"/><rect x="309.94" y="58" width="2.50" height="58" fill="#16a34a"/><rect x="312.24" y="58" width="2.50" height="58" fill="#16a34a"/><rect x="314.54" y="58" width="2.50" height="58" fill="#16a34a"/><rect x="316.85" y="58" width="2.50" height="58" fill="#16a34a"/><rect x="319.15" y="58" width="2.50" height="58" fill="#16a34a"/><rect x="321.46" y="58" width="2.50" height="58" fill="#16a34a"/><rect x="323.76" y="58" width="2.50" height="58" fill="#16a34a"/><rect x="326.06" y="58" width="2.50" height="58" fill="#16a34a"/><rect x="328.37" y="58" width="2.50" height="58" fill="#16a34a"/><rect x="330.67" y="58" width="2.50" height="58" fill="#16a34a"/><rect x="332.97" y="58" width="2.50" height="58" fill="#16a34a"/><rect x="335.28" y="58" width="2.50" height="58" fill="#16a34a"/><rect x="337.58" y="58" width="2.50" height="58" fill="#16a34a"/><rect x="339.89" y="58" width="2.50" height="58" fill="#16a34a"/><rect x="342.19" y="58" width="2.50" height="58" fill="#16a34a"/><rect x="344.49" y="58" width="2.50" height="58" fill="#16a34a"/><rect x="346.80" y="58" width="2.50" height="58" fill="#16a34a"/><rect x="349.10" y="58" width="2.50" height="58" fill="#16a34a"/><rect x="351.41" y="58" width="2.50" height="58" fill="#16a34a"/><rect x="353.71" y="58" width="2.50" height="58" fill="#16a34a"/><rect x="356.01" y="58" width="2.50" height="58" fill="#16a34a"/><rect x="358.32" y="58" width="2.50" height="58" fill="#16a34a"/><rect x="360.62" y="58" width="2.50" height="58" fill="#16a34a"/><rect x="362.92" y="58" width="2.50" height="58" fill="#16a34a"/><rect x="365.23" y="58" width="2.50" height="58" fill="#16a34a"/><rect x="367.53" y="58" width="2.50" height="58" fill="#16a34a"/><rect x="369.84" y="58" width="2.50" height="58" fill="#16a34a"/><rect x="372.14" y="58" width="2.50" height="58" fill="#16a34a"/><rect x="374.44" y="58" width="2.50" height="58" fill="#16a34a"/><rect x="376.75" y="58" width="2.50" height="58" fill="#16a34a"/><rect x="379.05" y="58" width="2.50" height="58" fill="#16a34a"/><rect x="381.35" y="58" width="2.50" height="58" fill="#16a34a"/><rect x="383.66" y="58" width="2.50" height="58" fill="#16a34a"/><rect x="385.96" y="58" width="2.50" height="58" fill="#f59e0b"/><rect x="388.27" y="58" width="2.50" height="58" fill="#f59e0b"/><rect x="390.57" y="58" width="2.50" height="58" fill="#dc2626"/><rect x="392.87" y="58" width="2.50" height="58" fill="#dc2626"/><rect x="395.18" y="58" width="2.50" height="58" fill="#0284c7"/><rect x="397.48" y="58" width="2.50" height="58" fill="#0284c7"/><rect x="399.78" y="58" width="2.50" height="58" fill="#0284c7"/><rect x="402.09" y="58" width="2.50" height="58" fill="#16a34a"/><rect x="404.39" y="58" width="2.50" height="58" fill="#16a34a"/><rect x="406.70" y="58" width="2.50" height="58" fill="#16a34a"/><rect x="409.00" y="58" width="2.50" height="58" fill="#16a34a"/><rect x="411.30" y="58" width="2.50" height="58" fill="#16a34a"/><rect x="413.61" y="58" width="2.50" height="58" fill="#16a34a"/><rect x="415.91" y="58" width="2.50" height="58" fill="#16a34a"/><rect x="418.22" y="58" width="2.50" height="58" fill="#16a34a"/><rect x="420.52" y="58" width="2.50" height="58" fill="#16a34a"/><rect x="422.82" y="58" width="2.50" height="58" fill="#16a34a"/><rect x="425.13" y="58" width="2.50" height="58" fill="#16a34a"/><rect x="427.43" y="58" width="2.50" height="58" fill="#16a34a"/><rect x="429.73" y="58" width="2.50" height="58" fill="#16a34a"/><rect x="432.04" y="58" width="2.50" height="58" fill="#16a34a"/><rect x="434.34" y="58" width="2.50" height="58" fill="#16a34a"/><rect x="436.65" y="58" width="2.50" height="58" fill="#16a34a"/><rect x="438.95" y="58" width="2.50" height="58" fill="#16a34a"/><rect x="441.25" y="58" width="2.50" height="58" fill="#16a34a"/><rect x="443.56" y="58" width="2.50" height="58" fill="#16a34a"/><rect x="445.86" y="58" width="2.50" height="58" fill="#16a34a"/><rect x="448.16" y="58" width="2.50" height="58" fill="#16a34a"/><rect x="450.47" y="58" width="2.50" height="58" fill="#16a34a"/><rect x="452.77" y="58" width="2.50" height="58" fill="#16a34a"/><rect x="455.08" y="58" width="2.50" height="58" fill="#16a34a"/><rect x="457.38" y="58" width="2.50" height="58" fill="#16a34a"/><rect x="459.68" y="58" width="2.50" height="58" fill="#16a34a"/><rect x="461.99" y="58" width="2.50" height="58" fill="#16a34a"/><rect x="464.29" y="58" width="2.50" height="58" fill="#16a34a"/><rect x="466.59" y="58" width="2.50" height="58" fill="#16a34a"/><rect x="468.90" y="58" width="2.50" height="58" fill="#16a34a"/><rect x="471.20" y="58" width="2.50" height="58" fill="#16a34a"/><rect x="473.51" y="58" width="2.50" height="58" fill="#16a34a"/><rect x="475.81" y="58" width="2.50" height="58" fill="#16a34a"/><rect x="478.11" y="58" width="2.50" height="58" fill="#16a34a"/><rect x="480.42" y="58" width="2.50" height="58" fill="#16a34a"/><rect x="482.72" y="58" width="2.50" height="58" fill="#16a34a"/><rect x="485.03" y="58" width="2.50" height="58" fill="#16a34a"/><rect x="487.33" y="58" width="2.50" height="58" fill="#16a34a"/><rect x="489.63" y="58" width="2.50" height="58" fill="#16a34a"/><rect x="491.94" y="58" width="2.50" height="58" fill="#16a34a"/><rect x="494.24" y="58" width="2.50" height="58" fill="#16a34a"/><rect x="496.54" y="58" width="2.50" height="58" fill="#16a34a"/><rect x="498.85" y="58" width="2.50" height="58" fill="#16a34a"/><rect x="501.15" y="58" width="2.50" height="58" fill="#16a34a"/><rect x="503.46" y="58" width="2.50" height="58" fill="#16a34a"/><rect x="505.76" y="58" width="2.50" height="58" fill="#16a34a"/><rect x="508.06" y="58" width="2.50" height="58" fill="#16a34a"/><rect x="510.37" y="58" width="2.50" height="58" fill="#16a34a"/><rect x="512.67" y="58" width="2.50" height="58" fill="#16a34a"/><rect x="514.97" y="58" width="2.50" height="58" fill="#16a34a"/><rect x="517.28" y="58" width="2.50" height="58" fill="#16a34a"/><rect x="519.58" y="58" width="2.50" height="58" fill="#16a34a"/><rect x="521.89" y="58" width="2.50" height="58" fill="#16a34a"/><rect x="524.19" y="58" width="2.50" height="58" fill="#16a34a"/><rect x="526.49" y="58" width="2.50" height="58" fill="#16a34a"/><rect x="528.80" y="58" width="2.50" height="58" fill="#16a34a"/><rect x="531.10" y="58" width="2.50" height="58" fill="#16a34a"/><rect x="533.41" y="58" width="2.50" height="58" fill="#16a34a"/><rect x="535.71" y="58" width="2.50" height="58" fill="#16a34a"/><rect x="538.01" y="58" width="2.50" height="58" fill="#16a34a"/><rect x="540.32" y="58" width="2.50" height="58" fill="#16a34a"/><rect x="542.62" y="58" width="2.50" height="58" fill="#16a34a"/><rect x="544.92" y="58" width="2.50" height="58" fill="#16a34a"/><rect x="547.23" y="58" width="2.50" height="58" fill="#16a34a"/><rect x="549.53" y="58" width="2.50" height="58" fill="#16a34a"/><rect x="551.84" y="58" width="2.50" height="58" fill="#16a34a"/><rect x="554.14" y="58" width="2.50" height="58" fill="#16a34a"/><rect x="556.44" y="58" width="2.50" height="58" fill="#16a34a"/><rect x="558.75" y="58" width="2.50" height="58" fill="#16a34a"/><rect x="561.05" y="58" width="2.50" height="58" fill="#16a34a"/><rect x="563.35" y="58" width="2.50" height="58" fill="#16a34a"/><rect x="565.66" y="58" width="2.50" height="58" fill="#16a34a"/><rect x="567.96" y="58" width="2.50" height="58" fill="#16a34a"/><rect x="570.27" y="58" width="2.50" height="58" fill="#16a34a"/><rect x="572.57" y="58" width="2.50" height="58" fill="#16a34a"/><rect x="574.87" y="58" width="2.50" height="58" fill="#16a34a"/><rect x="577.18" y="58" width="2.50" height="58" fill="#16a34a"/><rect x="579.48" y="58" width="2.50" height="58" fill="#16a34a"/><rect x="581.78" y="58" width="2.50" height="58" fill="#16a34a"/><rect x="584.09" y="58" width="2.50" height="58" fill="#16a34a"/><rect x="586.39" y="58" width="2.50" height="58" fill="#16a34a"/><rect x="588.70" y="58" width="2.50" height="58" fill="#16a34a"/><rect x="591.00" y="58" width="2.50" height="58" fill="#16a34a"/><rect x="593.30" y="58" width="2.50" height="58" fill="#16a34a"/><rect x="595.61" y="58" width="2.50" height="58" fill="#16a34a"/><rect x="597.91" y="58" width="2.50" height="58" fill="#16a34a"/><rect x="600.22" y="58" width="2.50" height="58" fill="#16a34a"/><rect x="602.52" y="58" width="2.50" height="58" fill="#16a34a"/><rect x="604.82" y="58" width="2.50" height="58" fill="#16a34a"/><rect x="607.13" y="58" width="2.50" height="58" fill="#16a34a"/><rect x="609.43" y="58" width="2.50" height="58" fill="#16a34a"/><rect x="611.73" y="58" width="2.50" height="58" fill="#16a34a"/><rect x="614.04" y="58" width="2.50" height="58" fill="#16a34a"/><rect x="616.34" y="58" width="2.50" height="58" fill="#16a34a"/><rect x="618.65" y="58" width="2.50" height="58" fill="#16a34a"/><rect x="620.95" y="58" width="2.50" height="58" fill="#16a34a"/><rect x="623.25" y="58" width="2.50" height="58" fill="#16a34a"/><rect x="625.56" y="58" width="2.50" height="58" fill="#16a34a"/><rect x="627.86" y="58" width="2.50" height="58" fill="#16a34a"/><rect x="630.16" y="58" width="2.50" height="58" fill="#16a34a"/><rect x="632.47" y="58" width="2.50" height="58" fill="#16a34a"/><rect x="634.77" y="58" width="2.50" height="58" fill="#16a34a"/><rect x="637.08" y="58" width="2.50" height="58" fill="#16a34a"/><rect x="639.38" y="58" width="2.50" height="58" fill="#16a34a"/><rect x="641.68" y="58" width="2.50" height="58" fill="#16a34a"/><rect x="643.99" y="58" width="2.50" height="58" fill="#16a34a"/><rect x="646.29" y="58" width="2.50" height="58" fill="#16a34a"/><rect x="648.59" y="58" width="2.50" height="58" fill="#16a34a"/><rect x="650.90" y="58" width="2.50" height="58" fill="#16a34a"/><rect x="653.20" y="58" width="2.50" height="58" fill="#16a34a"/><rect x="655.51" y="58" width="2.50" height="58" fill="#16a34a"/><rect x="657.81" y="58" width="2.50" height="58" fill="#16a34a"/><rect x="660.11" y="58" width="2.50" height="58" fill="#16a34a"/><rect x="662.42" y="58" width="2.50" height="58" fill="#16a34a"/><rect x="664.72" y="58" width="2.50" height="58" fill="#16a34a"/><rect x="667.03" y="58" width="2.50" height="58" fill="#16a34a"/><rect x="669.33" y="58" width="2.50" height="58" fill="#16a34a"/><rect x="671.63" y="58" width="2.50" height="58" fill="#16a34a"/><rect x="673.94" y="58" width="2.50" height="58" fill="#16a34a"/><rect x="676.24" y="58" width="2.50" height="58" fill="#16a34a"/><rect x="678.54" y="58" width="2.50" height="58" fill="#16a34a"/><rect x="680.85" y="58" width="2.50" height="58" fill="#16a34a"/><rect x="683.15" y="58" width="2.50" height="58" fill="#16a34a"/><rect x="685.46" y="58" width="2.50" height="58" fill="#16a34a"/><rect x="687.76" y="58" width="2.50" height="58" fill="#16a34a"/><rect x="690.06" y="58" width="2.50" height="58" fill="#16a34a"/><rect x="692.37" y="58" width="2.50" height="58" fill="#16a34a"/><rect x="694.67" y="58" width="2.50" height="58" fill="#16a34a"/><rect x="696.97" y="58" width="2.50" height="58" fill="#16a34a"/><rect x="699.28" y="58" width="2.50" height="58" fill="#16a34a"/><rect x="701.58" y="58" width="2.50" height="58" fill="#16a34a"/><rect x="703.89" y="58" width="2.50" height="58" fill="#16a34a"/><rect x="706.19" y="58" width="2.50" height="58" fill="#16a34a"/><rect x="708.49" y="58" width="2.50" height="58" fill="#16a34a"/><rect x="710.80" y="58" width="2.50" height="58" fill="#16a34a"/><rect x="713.10" y="58" width="2.50" height="58" fill="#16a34a"/><rect x="715.41" y="58" width="2.50" height="58" fill="#16a34a"/><rect x="717.71" y="58" width="2.50" height="58" fill="#16a34a"/><rect x="720.01" y="58" width="2.50" height="58" fill="#16a34a"/><rect x="722.32" y="58" width="2.50" height="58" fill="#16a34a"/><rect x="724.62" y="58" width="2.50" height="58" fill="#16a34a"/><rect x="726.92" y="58" width="2.50" height="58" fill="#16a34a"/><rect x="729.23" y="58" width="2.50" height="58" fill="#16a34a"/><rect x="731.53" y="58" width="2.50" height="58" fill="#16a34a"/><rect x="733.84" y="58" width="2.50" height="58" fill="#16a34a"/><rect x="736.14" y="58" width="2.50" height="58" fill="#16a34a"/><rect x="738.44" y="58" width="2.50" height="58" fill="#16a34a"/><rect x="740.75" y="58" width="2.50" height="58" fill="#16a34a"/><rect x="743.05" y="58" width="2.50" height="58" fill="#16a34a"/><rect x="745.35" y="58" width="2.50" height="58" fill="#16a34a"/><rect x="747.66" y="58" width="2.50" height="58" fill="#16a34a"/><rect x="749.96" y="58" width="2.50" height="58" fill="#16a34a"/><rect x="752.27" y="58" width="2.50" height="58" fill="#16a34a"/><rect x="754.57" y="58" width="2.50" height="58" fill="#16a34a"/><rect x="756.87" y="58" width="2.50" height="58" fill="#16a34a"/><rect x="759.18" y="58" width="2.50" height="58" fill="#16a34a"/><rect x="761.48" y="58" width="2.50" height="58" fill="#16a34a"/><rect x="763.78" y="58" width="2.50" height="58" fill="#16a34a"/><rect x="766.09" y="58" width="2.50" height="58" fill="#16a34a"/><rect x="768.39" y="58" width="2.50" height="58" fill="#16a34a"/><rect x="770.70" y="58" width="2.50" height="58" fill="#16a34a"/><rect x="773.00" y="58" width="2.50" height="58" fill="#16a34a"/><rect x="775.30" y="58" width="2.50" height="58" fill="#16a34a"/><rect x="777.61" y="58" width="2.50" height="58" fill="#16a34a"/><rect x="779.91" y="58" width="2.50" height="58" fill="#16a34a"/><rect x="782.22" y="58" width="2.50" height="58" fill="#16a34a"/><rect x="784.52" y="58" width="2.50" height="58" fill="#16a34a"/><rect x="786.82" y="58" width="2.50" height="58" fill="#16a34a"/><rect x="789.13" y="58" width="2.50" height="58" fill="#16a34a"/><rect x="791.43" y="58" width="2.50" height="58" fill="#16a34a"/><rect x="793.73" y="58" width="2.50" height="58" fill="#16a34a"/><rect x="796.04" y="58" width="2.50" height="58" fill="#16a34a"/><rect x="798.34" y="58" width="2.50" height="58" fill="#16a34a"/><rect x="800.65" y="58" width="2.50" height="58" fill="#f59e0b"/><rect x="802.95" y="58" width="2.50" height="58" fill="#f59e0b"/><rect x="805.25" y="58" width="2.50" height="58" fill="#dc2626"/><rect x="807.56" y="58" width="2.50" height="58" fill="#0284c7"/><rect x="809.86" y="58" width="2.50" height="58" fill="#0284c7"/><rect x="812.16" y="58" width="2.50" height="58" fill="#0284c7"/><rect x="814.47" y="58" width="2.50" height="58" fill="#16a34a"/><rect x="816.77" y="58" width="2.50" height="58" fill="#16a34a"/><rect x="819.08" y="58" width="2.50" height="58" fill="#16a34a"/><rect x="821.38" y="58" width="2.50" height="58" fill="#16a34a"/><rect x="823.68" y="58" width="2.50" height="58" fill="#16a34a"/><rect x="825.99" y="58" width="2.50" height="58" fill="#16a34a"/><rect x="828.29" y="58" width="2.50" height="58" fill="#16a34a"/><rect x="830.59" y="58" width="2.50" height="58" fill="#16a34a"/><rect x="832.90" y="58" width="2.50" height="58" fill="#16a34a"/><rect x="835.20" y="58" width="2.50" height="58" fill="#16a34a"/><rect x="837.51" y="58" width="2.50" height="58" fill="#16a34a"/><rect x="839.81" y="58" width="2.50" height="58" fill="#16a34a"/><rect x="842.11" y="58" width="2.50" height="58" fill="#16a34a"/><rect x="844.42" y="58" width="2.50" height="58" fill="#16a34a"/><rect x="846.72" y="58" width="2.50" height="58" fill="#16a34a"/><rect x="849.03" y="58" width="2.50" height="58" fill="#16a34a"/><rect x="851.33" y="58" width="2.50" height="58" fill="#16a34a"/><rect x="853.63" y="58" width="2.50" height="58" fill="#16a34a"/><rect x="855.94" y="58" width="2.50" height="58" fill="#16a34a"/><rect x="858.24" y="58" width="2.50" height="58" fill="#16a34a"/><rect x="860.54" y="58" width="2.50" height="58" fill="#16a34a"/><rect x="862.85" y="58" width="2.50" height="58" fill="#16a34a"/><rect x="865.15" y="58" width="2.50" height="58" fill="#16a34a"/><rect x="867.46" y="58" width="2.50" height="58" fill="#16a34a"/><rect x="869.76" y="58" width="2.50" height="58" fill="#16a34a"/><rect x="872.06" y="58" width="2.50" height="58" fill="#16a34a"/><rect x="874.37" y="58" width="2.50" height="58" fill="#16a34a"/><rect x="876.67" y="58" width="2.50" height="58" fill="#16a34a"/><rect x="878.97" y="58" width="2.50" height="58" fill="#16a34a"/><rect x="881.28" y="58" width="2.50" height="58" fill="#16a34a"/><rect x="883.58" y="58" width="2.50" height="58" fill="#16a34a"/><rect x="885.89" y="58" width="2.50" height="58" fill="#16a34a"/><rect x="888.19" y="58" width="2.50" height="58" fill="#16a34a"/><rect x="890.49" y="58" width="2.50" height="58" fill="#16a34a"/><rect x="892.80" y="58" width="2.50" height="58" fill="#16a34a"/><rect x="895.10" y="58" width="2.50" height="58" fill="#16a34a"/><rect x="897.41" y="58" width="2.50" height="58" fill="#16a34a"/><rect x="899.71" y="58" width="2.50" height="58" fill="#16a34a"/><rect x="902.01" y="58" width="2.50" height="58" fill="#16a34a"/><rect x="904.32" y="58" width="2.50" height="58" fill="#16a34a"/><rect x="906.62" y="58" width="2.50" height="58" fill="#16a34a"/><rect x="908.92" y="58" width="2.50" height="58" fill="#16a34a"/><rect x="911.23" y="58" width="2.50" height="58" fill="#16a34a"/><rect x="913.53" y="58" width="2.50" height="58" fill="#16a34a"/><rect x="915.84" y="58" width="2.50" height="58" fill="#16a34a"/><rect x="918.14" y="58" width="2.50" height="58" fill="#16a34a"/><rect x="920.44" y="58" width="2.50" height="58" fill="#16a34a"/><rect x="922.75" y="58" width="2.50" height="58" fill="#16a34a"/><rect x="925.05" y="58" width="2.50" height="58" fill="#16a34a"/><rect x="927.35" y="58" width="2.50" height="58" fill="#16a34a"/><rect x="929.66" y="58" width="2.50" height="58" fill="#16a34a"/><rect x="931.96" y="58" width="2.50" height="58" fill="#16a34a"/><rect x="934.27" y="58" width="2.50" height="58" fill="#16a34a"/><rect x="936.57" y="58" width="2.50" height="58" fill="#16a34a"/><rect x="938.87" y="58" width="2.50" height="58" fill="#16a34a"/><rect x="941.18" y="58" width="2.50" height="58" fill="#16a34a"/><rect x="943.48" y="58" width="2.50" height="58" fill="#16a34a"/><rect x="945.78" y="58" width="2.50" height="58" fill="#16a34a"/><rect x="948.09" y="58" width="2.50" height="58" fill="#16a34a"/><rect x="950.39" y="58" width="2.50" height="58" fill="#16a34a"/><rect x="952.70" y="58" width="2.50" height="58" fill="#16a34a"/>
<text x="45" y="150" font-family="sans-serif" font-size="13">GLOBAL_SEARCH purple · TRACKING green · DEGRADED orange · LOST red · RECOVERED blue</text>
<text x="45" y="174" font-family="sans-serif" font-size="13">Scan sequence →</text>
</svg>
